# xmcd
#
# Track frame offsets: 
#        150
#        42712
#        78950
#        115225
#        159087
#        209800
#        253502
#
# Disc length: 3753 seconds
#
# Revision: 5
# Processed by: cddbd v1.5.2PL0 Copyright (c) Steve Scherf et al.
# Submitted via: ExactAudioCopy v1.0b3
#
DISCID=5a0ea707
DTITLE=David Oistrakh (violin) and Berlin Philharmoniker - Mozart‧Violin
DTITLE=Concertos Nos.1–5（Disc 2）
DYEAR=1971
DGENRE=Classical
TTITLE0=Mozart‧Violin Concerto No.4 in D major, K.218：I. Allegro
TTITLE1=Mozart‧Violin Concerto No.4 in D major, K.218：II. Andante cant
TTITLE1=abile
TTITLE2=Mozart‧Violin Concerto No.4 in D major, K.218：III. Rondeau（And
TTITLE2=ante grazioso–Allegro ma non troppo）
TTITLE3=Mozart‧Violin Concerto No.5 in A major, K.219“Turkish”：I. Alle
TTITLE3=gro aperto
TTITLE4=Mozart‧Violin Concerto No.5 in A major, K.219“Turkish”：II. Ada
TTITLE4=gio
TTITLE5=Mozart‧Violin Concerto No.5 in A major, K.219“Turkish”：III. Ro
TTITLE5=ndeau（Tempo di menuetto）
TTITLE6=Mozart‧Rondo in C major, K.343
EXTD=YEAR: 1970
EXTT0=
EXTT1=
EXTT2=
EXTT3=
EXTT4=
EXTT5=
EXTT6=
PLAYORDER=
